<svg xmlns="http://www.w3.org/2000/svg" viewBox="0 0 540.38 112.17"><defs><style>.cls-1{fill:#1f7bff;}.cls-2{fill:#3f4244;}</style></defs><title>linkandgrow-logo</title><g id="Layer_1" data-name="Layer 1"><path class="cls-1" d="M49.72,75.16V86.77H6.57V75.16H22.32V17.59H6.57v-11H34.86V75.16Z"/><path class="cls-1" d="M105.84,75.16V86.77H62.68V75.16h16v-32h-16V32.18H91.2v43ZM91.2,22.35H77.66V9.86H91.2Z"/><path class="cls-1" d="M164.34,86.77H151.92V54.28q0-11.06-10.1-11.05a10,10,0,0,0-7.77,3.2,12.42,12.42,0,0,0-2.88,8.62V86.77H118.74V32.07h12.43V37.7h.33a17.64,17.64,0,0,1,6.6-4.53A21,21,0,0,1,146,31.52q8.53,0,13.42,5t4.88,14.36Z"/><path class="cls-1" d="M228.35,86.77H213.48l-16-24.53-7.77,8.39V86.77H177.2V6.54h12.54v48l.21.1,20.42-22.53h15.09l-19.64,21.2Z"/><rect class="cls-1" x="111.21" y="-11.41" width="12.57" height="221.49" transform="translate(18.16 216.84) rotate(-90)"/><path class="cls-2" d="M336.08,105.62q-11.29,0-17.85-4.53a17.7,17.7,0,0,1-7.72-12.52h14.38a8.58,8.58,0,0,0,3.36,4.32q2.5,1.76,7.62,1.75,12.15,0,12.14-11.4v-6h-.31a21.61,21.61,0,0,1-5.76,4.58,17.59,17.59,0,0,1-8.52,1.81,23.42,23.42,0,0,1-8.9-1.76,23.12,23.12,0,0,1-7.67-5.11,26,26,0,0,1-5.44-8.21,27.85,27.85,0,0,1-2.07-11,32.89,32.89,0,0,1,1.75-11A25.33,25.33,0,0,1,316,38.06a21.25,21.25,0,0,1,7.45-5.38A23.88,23.88,0,0,1,333,30.82a19.43,19.43,0,0,1,8.9,1.92,17,17,0,0,1,6.23,5.32h.21V32.31h14V82.82a25.37,25.37,0,0,1-1.7,9.8,18.9,18.9,0,0,1-4.8,6.82,20.74,20.74,0,0,1-8.52,4.69A40,40,0,0,1,336.08,105.62Zm-.21-33.57a13.52,13.52,0,0,0,5.86-1.17,10.76,10.76,0,0,0,4-3.19A13.68,13.68,0,0,0,348,63a21.23,21.23,0,0,0,.75-5.76,20.23,20.23,0,0,0-.8-5.7,13.77,13.77,0,0,0-2.4-4.74,11.26,11.26,0,0,0-4.05-3.2,13.2,13.2,0,0,0-5.75-1.17,11,11,0,0,0-8.9,4q-3.35,4-3.35,10.92t3.35,10.87A11.36,11.36,0,0,0,335.87,72.05Z"/><path class="cls-2" d="M382.59,41h.32a20.6,20.6,0,0,1,5.54-7,12.68,12.68,0,0,1,7.88-2.35,10.58,10.58,0,0,1,3.41.43V44.75h-.32q-7.14-.75-11.72,3.09t-4.58,12.47V87H368.63V32.28h14Z"/><path class="cls-2" d="M428.18,88.4a29.08,29.08,0,0,1-11.55-2.22,27.63,27.63,0,0,1-8.95-6.09A27.25,27.25,0,0,1,401.85,71a31.94,31.94,0,0,1,0-22.57,27,27,0,0,1,14.78-15.2,31.16,31.16,0,0,1,23.1,0,27,27,0,0,1,14.78,15.2,31.8,31.8,0,0,1,0,22.57,27.25,27.25,0,0,1-5.83,9.12,27.53,27.53,0,0,1-8.95,6.09A29.08,29.08,0,0,1,428.18,88.4Zm0-11q6.68,0,10.23-4.87T442,59.69q0-7.95-3.55-12.87t-10.23-4.93q-6.68,0-10.22,4.93t-3.55,12.87q0,7.95,3.55,12.82T428.18,77.38Z"/><path class="cls-2" d="M455.28,32.22h14.39l6.6,25.36c.29,1.14.59,2.31.91,3.52s.59,2.31.8,3.3c.28,1.21.53,2.35.74,3.41h.22c.21-1.13.46-2.31.74-3.51.22-1,.45-2.1.7-3.31a35.33,35.33,0,0,1,.9-3.51l6.82-25.26h12.36l7.14,25.26c.28,1.2.57,2.41.85,3.62s.57,2.31.86,3.3c.28,1.21.56,2.35.85,3.41h.21c.21-1.06.46-2.2.75-3.41q.63-3.2,1.7-6.82l6.93-25.36h14.06l-16.3,54.66H504.3L497.05,60q-.53-1.59-1-3.3c-.28-1.14-.53-2.17-.74-3.09s-.54-2.09-.75-3.09h-.21c-.29,1-.57,2-.85,3.09s-.57,2-.86,3.09-.57,2.24-.85,3.3l-7.46,26.85h-13.1Z"/><path class="cls-2" d="M260.2,88.46A34.13,34.13,0,0,1,249,86.78a23.71,23.71,0,0,1-8.07-4.55A18.27,18.27,0,0,1,236,75.4a22.18,22.18,0,0,1-1.62-8.5,20.34,20.34,0,0,1,4.76-13.77,39.29,39.29,0,0,1,12.36-9.32,34.43,34.43,0,0,1-4.93-7.7A20.51,20.51,0,0,1,245,27.77a17.08,17.08,0,0,1,1.46-7A17.78,17.78,0,0,1,250.56,15a18.22,18.22,0,0,1,6.28-3.79,23.82,23.82,0,0,1,8.24-1.35,24.3,24.3,0,0,1,8.07,1.3,19.32,19.32,0,0,1,6.45,3.63,16.34,16.34,0,0,1,4.23,5.58,17,17,0,0,1,1.52,7.26,19,19,0,0,1-1,6.34,15.45,15.45,0,0,1-2.82,4.93,23,23,0,0,1-4.39,4,48.08,48.08,0,0,1-5.69,3.41l10.3,13.33a46.74,46.74,0,0,0,3-12.57h13.12a61.8,61.8,0,0,1-2.38,12.63,49.38,49.38,0,0,1-5,11.32L302.8,86.84h-18l-4-5.1a36.23,36.23,0,0,1-9.53,4.94A33.87,33.87,0,0,1,260.2,88.46Zm.54-12.13a18.65,18.65,0,0,0,12.36-4.56L258.9,53.24A20.13,20.13,0,0,0,252,59.52a13.3,13.3,0,0,0-2,6.94,9.06,9.06,0,0,0,3.09,7.16A11.21,11.21,0,0,0,260.74,76.33ZM259.23,28a9.42,9.42,0,0,0,1.57,5.09A25.82,25.82,0,0,0,264.86,38,13.62,13.62,0,0,0,270,33.19a11,11,0,0,0,1.36-5.31,5.89,5.89,0,0,0-1.79-4.5,6,6,0,0,0-4.28-1.68A5.91,5.91,0,0,0,261,23.43,6.16,6.16,0,0,0,259.23,28Z"/></g></svg>